<svg width="5087" height="1655" viewBox="0 0 5087 1655" fill="none" xmlns="http://www.w3.org/2000/svg">
<g filter="url(#filter0_d_14_15)">
<circle cx="977" cy="800" r="800" fill="#5EA872"/>
</g>
<path d="M1005.71 1051C1004.46 1053.75 1003.22 1056.41 1002 1059L1006 1051H1005.71Z" fill="#656263"/>
<path d="M522.11 851.714C534.249 859.376 546.362 865.389 550.287 867.106C669.614 919.1 787.088 906.001 900.976 854.882C953.148 831.479 1002.51 814.383 1055.94 847.666C1079.09 862.092 1086.56 849.168 1092.85 833.461C1133.32 732.323 1181.94 632.987 1181.31 517.181C1184.56 463.137 1168.86 406.711 1147.46 350.556C1132.36 310.909 1103.42 297.585 1058.32 295.196C880.624 285.801 773.422 372.874 696.563 499.91C674.715 536 648.437 566.991 616.464 593.25C584.766 619.284 550.172 636.713 536.544 643.477C464.703 679.064 441.519 668.856 428.051 690.611C401.805 733.018 463.393 814.626 522.11 851.714ZM952.426 1259.01C956.485 1258.3 960.493 1257.51 964.469 1256.65C958.677 1227.15 959.905 1193.55 968.969 1156.53C982.942 1099.44 1006.8 1044.23 1026 988.117C1031.97 970.597 1047.94 954.365 1023.35 935.778C998.864 917.276 978.787 919.185 951.64 931.036C928.468 941.17 905.15 950.187 881.672 957.95C854.442 1020.55 830.714 1084.13 821.107 1151.69C809.652 1232.13 862.112 1274.56 952.426 1259.01ZM1198.08 1303.99C1260.93 1293.17 1313.38 1264.16 1357.91 1224.29C1402.34 1184.53 1440.93 1131.68 1469.97 1081.81C1496.41 1036.39 1515.63 987.468 1527.45 937.077C1577.42 724.216 1495.41 485.513 1268.62 376.99C1274.29 419.663 1281.23 456.272 1283.66 493.112C1291.75 615.71 1244.19 727.874 1198.97 840.671C1151.76 958.413 1084.7 1070.65 1066.76 1196.69C1055.31 1277.12 1107.77 1319.54 1198.08 1303.99ZM309.1 673.311C310.494 627.392 328.379 599.19 383.357 592.759C489.856 580.298 562.15 530.625 615.313 445.793C733.069 257.91 889.246 187.679 1105.87 212.973C1266.85 231.763 1415.67 344.198 1512.03 453.296C1559.92 507.527 1594.48 569.215 1616.49 634.444C1647.07 725.068 1653.43 822.53 1637.66 916.282C1611.71 1070.53 1522.69 1220 1385.98 1319.82C1335.83 1356.44 1278.83 1382.52 1212.99 1389.54C1121.75 1399.28 1050.67 1379.66 1007.57 1337.7C994.531 1340.76 981.126 1343.09 967.332 1344.56C786.679 1363.84 684.994 1268.06 723.301 1111.55C733.823 1068.58 749.944 1026.69 765.438 984.673C696.531 993.261 626.065 988.478 553.611 965.352C405.762 918.157 305.374 796.976 309.1 673.311Z" fill="white"/>
<path d="M814.994 473C843.714 473 867 498.079 867 529C867 559.933 843.714 585 814.994 585C786.267 585 763 559.933 763 529C763 498.079 786.267 473 814.994 473Z" fill="white"/>
<g filter="url(#filter1_d_14_15)">
<path d="M2384.48 895.8C2392.41 895.8 2396.38 906.533 2396.38 928C2396.38 939.667 2391.48 953.9 2381.68 970.7C2371.88 987.033 2359.05 1002.2 2343.18 1016.2C2327.78 1029.73 2310.51 1040.93 2291.38 1049.8C2272.25 1058.67 2253.58 1063.1 2235.38 1063.1C2207.85 1063.1 2188.71 1056.33 2177.98 1042.8C2167.71 1028.8 2162.58 1008.5 2162.58 981.9C2162.58 954.833 2173.08 908.633 2194.08 843.3C2129.68 840.5 2082.78 839.1 2053.38 839.1H2043.58C2035.18 890.9 2030.98 945.267 2030.98 1002.2C2030.98 1027.4 2021.41 1044.67 2002.28 1054C1993.41 1058.2 1984.78 1062.17 1976.38 1065.9C1968.45 1069.63 1959.81 1071.5 1950.48 1071.5C1927.15 1071.5 1915.48 1050.5 1915.48 1008.5C1915.48 966.5 1925.05 912.6 1944.18 846.8C1923.65 849.133 1905.45 851.467 1889.58 853.8C1874.18 856.133 1862.05 857.3 1853.18 857.3C1844.31 857.3 1839.88 854.967 1839.88 850.3C1839.88 836.3 1851.31 822.067 1874.18 807.6C1897.51 793.133 1929.01 782.167 1968.68 774.7C2012.55 663.167 2066.21 588.733 2129.68 551.4C2153.01 537.4 2177.75 530.4 2203.88 530.4C2250.55 530.867 2284.15 543.467 2304.68 568.2C2325.68 592.933 2336.18 625.833 2336.18 666.9C2336.65 707.5 2324.28 760.467 2299.08 825.8C2289.75 851 2281.11 873.867 2273.18 894.4C2265.25 914.933 2261.28 931.5 2261.28 944.1C2261.28 956.7 2262.21 966.267 2264.08 972.8C2265.95 979.333 2270.38 982.6 2277.38 982.6C2289.98 982.6 2319.61 958.333 2366.28 909.8C2374.68 900.467 2380.75 895.8 2384.48 895.8ZM2235.38 687.2C2235.38 646.6 2220.21 626.3 2189.88 626.3C2159.08 626.3 2132.48 639.367 2110.08 665.5C2088.15 691.167 2071.11 725.7 2058.98 769.1L2217.88 771.2C2229.55 733.867 2235.38 705.867 2235.38 687.2ZM2791.4 895.8C2799.8 895.8 2804 906.533 2804 928C2804 939.667 2799.1 953.9 2789.3 970.7C2779.5 987.033 2766.67 1002.2 2750.8 1016.2C2735.4 1029.73 2718.13 1040.93 2699 1049.8C2679.87 1058.67 2661.2 1063.1 2643 1063.1C2617.33 1063.1 2600.53 1042.1 2592.6 1000.1C2564.6 1044.43 2523.07 1066.6 2468 1066.6C2434.4 1066.6 2407.57 1056.33 2387.5 1035.8C2367.43 1015.27 2357.63 990.3 2358.1 960.9C2358.1 881.567 2384.47 819.033 2437.2 773.3C2473.6 742.033 2511.4 726.4 2550.6 726.4C2568.33 726.4 2582.33 727.8 2592.6 730.6L2608.7 734.8C2627.83 644.733 2650 584.533 2675.2 554.2C2683.6 543.933 2692 538.8 2700.4 538.8C2713.93 538.8 2726.53 548.133 2738.2 566.8C2748.47 582.2 2753.6 595.5 2753.6 606.7C2753.6 617.9 2751.97 628.867 2748.7 639.6C2745.43 650.333 2741.23 660.367 2736.1 669.7C2731.43 678.567 2726.07 687.433 2720 696.3C2713.93 704.7 2707.87 713.333 2701.8 722.2C2688.27 772.6 2678.23 829.067 2671.7 891.6C2669.83 909.333 2668.9 923.567 2668.9 934.3C2668.9 966.5 2674.27 982.6 2685 982.6C2697.13 982.6 2726.53 958.333 2773.2 909.8C2781.6 900.467 2787.67 895.8 2791.4 895.8ZM2461 937.8C2461 973.733 2474.3 991.7 2500.9 991.7C2516.77 991.7 2532.63 985.633 2548.5 973.5C2564.83 961.367 2577.43 941.067 2586.3 912.6C2587.23 870.6 2592.13 824.4 2601 774C2563.67 781.467 2531 799.667 2503 828.6C2475 857.533 2461 893.933 2461 937.8ZM3051.82 1001.5C3014.95 1044.9 2970.62 1066.6 2918.82 1066.6C2867.49 1066.6 2828.99 1053.53 2803.32 1027.4C2777.65 1000.8 2765.05 967.9 2765.52 928.7C2765.05 873.167 2782.55 825.333 2818.02 785.2C2853.49 745.067 2899.92 725 2957.32 725C2983.45 725 3004.45 728.267 3020.32 734.8C3047.85 746 3061.62 756.5 3061.62 766.3C3061.62 773.767 3042.25 777.733 3003.52 778.2C2965.25 778.2 2933.05 791.5 2906.92 818.1C2881.25 844.233 2868.42 877.367 2868.42 917.5C2868.42 938.5 2874.49 956.233 2886.62 970.7C2899.22 984.7 2916.72 991.7 2939.12 991.7C2961.99 991.7 2980.89 987.033 2995.82 977.7C2962.69 955.3 2946.12 922.867 2946.12 880.4C2945.65 858 2953.59 837.7 2969.92 819.5C2986.72 800.833 3007.95 791.5 3033.62 791.5C3059.75 791.033 3078.42 798.033 3089.62 812.5C3100.82 826.967 3106.42 845.633 3106.42 868.5C3106.42 890.9 3101.05 914.7 3090.32 939.9H3094.52C3115.05 939.433 3132.79 932.2 3147.72 918.2C3153.32 912.6 3157.99 907.7 3161.72 903.5C3165.92 899.3 3170.12 897.2 3174.32 897.2C3180.85 897.2 3184.12 904.9 3184.12 920.3C3184.12 948.767 3175.72 970.233 3158.92 984.7C3142.12 998.7 3123.45 1005.7 3102.92 1005.7C3082.85 1005.7 3065.82 1004.3 3051.82 1001.5ZM3121.12 507.3C3143.05 507.3 3154.02 511.033 3154.02 518.5C3154.02 523.633 3139.55 548.6 3110.62 593.4C3075.15 648.467 3028.49 676 2970.62 676C2951.95 676 2942.62 671.567 2942.62 662.7C2942.62 654.767 2949.62 648.7 2963.62 644.5C2966.42 643.567 2972.02 642.167 2980.42 640.3C2988.82 638.433 2998.15 633.3 3008.42 624.9C3019.15 616.033 3028.25 606 3035.72 594.8C3043.65 583.6 3050.42 571.7 3056.02 559.1C3062.09 546.5 3068.15 534.6 3074.22 523.4C3077.02 517.8 3083.09 513.833 3092.42 511.5C3102.22 508.7 3111.79 507.3 3121.12 507.3ZM3045.52 920.3C3053.45 903.5 3057.42 887.167 3057.42 871.3C3057.42 855.433 3052.29 847.5 3042.02 847.5C3037.82 847.5 3034.32 850.533 3031.52 856.6C3028.72 862.667 3027.32 868.5 3027.32 874.1C3027.32 892.767 3033.39 908.167 3045.52 920.3ZM3281.4 767.7C3305.67 740.167 3336.7 726.4 3374.5 726.4C3428.63 726.4 3462.93 748.333 3477.4 792.2C3481.6 805.267 3483.7 819.733 3483.7 835.6C3483.7 871.067 3472.03 906.067 3448.7 940.6C3425.83 975.133 3398.07 998.467 3365.4 1010.6H3373.8C3407.87 1010.6 3442.4 998 3477.4 972.8C3499.8 956.933 3517.3 940.6 3529.9 923.8C3542.97 906.533 3552.77 897.9 3559.3 897.9C3565.83 897.9 3569.1 905.367 3569.1 920.3C3569.1 946.433 3557.9 972.8 3535.5 999.4C3501.9 1037.67 3458.97 1060.07 3406.7 1066.6C3368.9 1070.8 3342.07 1071.5 3326.2 1068.7C3310.33 1065.9 3298.2 1062.4 3289.8 1058.2C3271.6 1048.87 3262.5 1034.87 3262.5 1016.2C3262.5 1005.93 3264.6 996.6 3268.8 988.2C3305.67 988.2 3333.67 974.2 3352.8 946.2C3371.93 918.2 3381.5 883.2 3381.5 841.2C3381.5 830.933 3377.77 821.833 3370.3 813.9C3362.83 805.5 3352.8 801.3 3340.2 801.3C3328.07 801.3 3314.77 806.667 3300.3 817.4C3285.83 828.133 3274.17 841.667 3265.3 858C3256.9 873.867 3249.2 889.733 3242.2 905.6C3235.2 921 3229.6 940.6 3225.4 964.4C3217.93 1007.33 3209.3 1061.47 3199.5 1126.8C3190.17 1192.6 3184.33 1227.83 3182 1232.5C3179.67 1237.63 3176.17 1242.3 3171.5 1246.5C3166.83 1250.7 3161.93 1252.8 3156.8 1252.8C3147.47 1252.8 3139.77 1250 3133.7 1244.4C3116.9 1229.93 3107.1 1218.73 3104.3 1210.8C3101.5 1203.33 3100.1 1193.53 3100.1 1181.4C3100.1 1135.67 3107.8 1071.5 3123.2 988.9C3138.6 906.3 3165.2 820.433 3203 731.3C3208.6 718.233 3218.4 711.7 3232.4 711.7C3246.87 711.7 3260.63 724.3 3273.7 749.5C3277.43 756.033 3280 762.1 3281.4 767.7ZM3564.76 1023.2C3559.63 1010.6 3555.9 996.133 3553.56 979.8C3551.23 963 3550.06 939.667 3550.06 909.8C3550.06 879.933 3555.66 839.567 3566.86 788.7H3535.36C3529.76 788.7 3526.96 786.367 3526.96 781.7C3526.96 770.5 3527.9 761.4 3529.76 754.4C3532.1 746.933 3537.23 738.533 3545.16 729.2H3561.96C3568.5 729.2 3575.5 728.967 3582.96 728.5C3605.36 656.633 3628.23 620.7 3651.56 620.7C3670.23 621.167 3683.3 633.067 3690.76 656.4C3692.63 662.933 3694.73 669.933 3697.06 677.4L3668.36 727.8C3701.03 728.733 3721.56 729.2 3729.96 729.2C3738.83 729.2 3743.5 730.133 3743.96 732C3744.9 733.4 3745.36 735.733 3745.36 739C3745.36 747.4 3743.26 757.9 3739.06 770.5C3735.33 783.1 3730.9 789.167 3725.76 788.7L3655.76 785.2C3645.96 842.133 3641.06 889.267 3641.06 926.6C3641.06 963.933 3646.43 982.6 3657.16 982.6C3666.03 982.6 3682.13 975.367 3705.46 960.9C3728.8 945.967 3745.6 931.733 3755.86 918.2C3766.13 904.667 3774.53 897.9 3781.06 897.9C3787.6 897.9 3790.86 905.833 3790.86 921.7C3790.86 937.567 3785.26 953.9 3774.06 970.7C3762.86 987.033 3748.63 1002.2 3731.36 1016.2C3714.56 1029.73 3695.66 1040.93 3674.66 1049.8C3654.13 1058.67 3636.16 1063.1 3620.76 1063.1C3605.36 1063.1 3593.46 1059.6 3585.06 1052.6C3577.13 1045.13 3570.36 1035.33 3564.76 1023.2ZM4185.93 895.8C4194.33 895.8 4198.53 906.533 4198.53 928C4198.53 939.667 4193.63 953.9 4183.83 970.7C4174.03 987.033 4161.2 1002.2 4145.33 1016.2C4129.93 1029.73 4112.66 1040.93 4093.53 1049.8C4074.4 1058.67 4055.73 1063.1 4037.53 1063.1C4012.8 1063.1 3996.23 1041.4 3987.83 998C3975.7 1018.07 3959.83 1034.63 3940.23 1047.7C3920.63 1060.3 3894.26 1066.6 3861.13 1066.6C3828.46 1066.6 3802.1 1056.33 3782.03 1035.8C3761.96 1015.27 3752.16 990.3 3752.63 960.9C3752.63 881.567 3779 819.033 3831.73 773.3C3854.13 754.167 3874.9 741.567 3894.03 735.5C3913.63 729.433 3934.16 726.4 3955.63 726.4C3977.1 726.4 3994.6 730.133 4008.13 737.6C4014.66 724.067 4022.13 717.3 4030.53 717.3C4046.86 717.3 4062.26 724.533 4076.73 739C4091.66 753 4099.13 766.3 4099.13 778.9C4092.6 794.3 4083.03 812.733 4070.43 834.2C4066.7 855.667 4064.83 885.767 4064.83 924.5C4064.83 963.233 4069.73 982.6 4079.53 982.6C4091.66 982.6 4121.06 958.333 4167.73 909.8C4176.13 900.467 4182.2 895.8 4185.93 895.8ZM3855.53 937.8C3855.53 973.733 3868.83 991.7 3895.43 991.7C3923.9 991.233 3947.46 976.067 3966.13 946.2C3972.66 935.933 3978.03 923.333 3982.23 908.4C3982.23 856.133 3986.9 811.333 3996.23 774C3958.43 781.467 3925.53 799.667 3897.53 828.6C3869.53 857.533 3855.53 893.933 3855.53 937.8ZM4547.15 848.2C4547.15 832.8 4538.29 825.1 4520.55 825.1C4508.42 825.1 4494.89 837 4479.95 860.8C4465.02 884.133 4454.29 909.333 4447.75 936.4V937.8C4447.75 953.667 4450.09 970 4454.75 986.8C4459.89 1003.6 4462.45 1015.27 4462.45 1021.8C4462.45 1037.67 4442.62 1053.3 4402.95 1068.7C4396.89 1071.03 4391.52 1072.2 4386.85 1072.2C4375.19 1072.2 4367.02 1066.13 4362.35 1054C4358.15 1041.87 4356.05 1025.53 4356.05 1005C4356.05 984 4356.52 964.4 4357.45 946.2C4358.85 927.533 4360.02 910.5 4360.95 895.1C4362.35 879.233 4363.52 865.467 4364.45 853.8C4365.85 841.667 4366.55 831.867 4366.55 824.4C4366.55 808.533 4359.32 800.6 4344.85 800.6C4330.39 800.6 4313.59 817.633 4294.45 851.7C4275.32 885.3 4265.75 912.133 4265.75 932.2C4265.75 951.8 4268.09 970 4272.75 986.8C4277.89 1003.6 4280.45 1015.27 4280.45 1021.8C4280.45 1037.67 4260.62 1053.3 4220.95 1068.7C4214.89 1071.03 4209.52 1072.2 4204.85 1072.2C4193.19 1072.2 4185.02 1066.13 4180.35 1054C4176.15 1041.87 4174.05 1023.2 4174.05 998C4174.05 931.733 4176.62 883.9 4181.75 854.5C4188.75 811.1 4204.62 770.033 4229.35 731.3C4237.75 718.233 4246.85 711.7 4256.65 711.7C4272.05 711.7 4286.29 724.3 4299.35 749.5C4303.09 756.033 4305.89 762.1 4307.75 767.7C4330.15 739.7 4356.52 725.7 4386.85 725.7C4406.92 725.7 4424.89 732.467 4440.75 746C4456.62 759.067 4464.55 775.633 4464.55 795.7V803.4C4493.02 767.933 4527.79 750.2 4568.85 750.2C4594.05 750.2 4613.19 756.733 4626.25 769.8C4639.32 782.867 4645.85 798.967 4645.85 818.1C4645.85 837.233 4644.45 854.5 4641.65 869.9C4638.85 885.3 4635.59 899.767 4631.85 913.3C4628.59 926.833 4625.55 938.967 4622.75 949.7C4619.95 959.967 4618.55 968.133 4618.55 974.2C4618.55 979.8 4620.42 982.6 4624.15 982.6C4631.15 982.6 4639.79 978.167 4650.05 969.3C4660.32 960.433 4670.59 950.867 4680.85 940.6C4691.12 929.867 4700.45 920.067 4708.85 911.2C4717.72 902.333 4723.79 897.9 4727.05 897.9C4733.59 897.9 4736.85 905.833 4736.85 921.7C4736.85 954.367 4720.29 986.1 4687.15 1016.9C4654.49 1047.7 4619.49 1063.1 4582.15 1063.1C4548.55 1063.1 4531.75 1032.53 4531.75 971.4C4531.75 956 4534.32 934.767 4539.45 907.7C4544.59 880.633 4547.15 860.8 4547.15 848.2ZM4864.64 984.7C4901.04 984.7 4936.27 970.233 4970.34 941.3C4982.94 930.567 4993.21 920.767 5001.14 911.9C5009.07 902.567 5015.14 897.9 5019.34 897.9C5025.87 897.9 5029.14 904.433 5029.14 917.5C5029.14 930.567 5025.64 945.267 5018.64 961.6C5011.64 977.467 4999.97 993.1 4983.64 1008.5C4943.51 1046.3 4888.44 1065.2 4818.44 1065.2C4762.91 1065.2 4725.11 1045.13 4705.04 1005C4698.04 991 4694.54 970.933 4694.54 944.8C4694.54 918.667 4699.67 891.6 4709.94 863.6C4720.21 835.133 4733.74 810.633 4750.54 790.1C4767.81 769.567 4787.64 753.7 4810.04 742.5C4832.44 730.833 4856.24 725 4881.44 725C4907.11 725 4926.71 731.3 4940.24 743.9C4954.24 756.5 4961.24 772.833 4961.24 792.9C4961.24 812.967 4956.11 829.533 4945.84 842.6C4936.04 855.2 4923.21 865.933 4907.34 874.8C4891.47 883.2 4873.74 890.9 4854.14 897.9C4835.01 904.433 4816.11 911.9 4797.44 920.3V937.8C4797.91 954.6 4804.91 966.5 4818.44 973.5C4831.97 980.5 4847.37 984.233 4864.64 984.7ZM4852.74 787.3C4828.47 787.3 4811.67 815.533 4802.34 872C4812.14 865.467 4821.24 859.633 4829.64 854.5C4838.51 849.367 4846.21 844.467 4852.74 839.8C4866.74 829.533 4873.97 817.867 4874.44 804.8C4874.44 793.133 4867.21 787.3 4852.74 787.3Z" fill="#5EA872"/>
</g>
<defs>
<filter id="filter0_d_14_15" x="177" y="0" width="1609" height="1614" filterUnits="userSpaceOnUse" color-interpolation-filters="sRGB">
<feFlood flood-opacity="0" result="BackgroundImageFix"/>
<feColorMatrix in="SourceAlpha" type="matrix" values="0 0 0 0 0 0 0 0 0 0 0 0 0 0 0 0 0 0 127 0" result="hardAlpha"/>
<feOffset dx="5" dy="10"/>
<feGaussianBlur stdDeviation="2"/>
<feComposite in2="hardAlpha" operator="out"/>
<feColorMatrix type="matrix" values="0 0 0 0 0 0 0 0 0 0 0 0 0 0 0 0 0 0 0.5 0"/>
<feBlend mode="normal" in2="BackgroundImageFix" result="effect1_dropShadow_14_15"/>
<feBlend mode="normal" in="SourceGraphic" in2="effect1_dropShadow_14_15" result="shape"/>
</filter>
<filter id="filter1_d_14_15" x="1839.88" y="507.3" width="3198.26" height="759.5" filterUnits="userSpaceOnUse" color-interpolation-filters="sRGB">
<feFlood flood-opacity="0" result="BackgroundImageFix"/>
<feColorMatrix in="SourceAlpha" type="matrix" values="0 0 0 0 0 0 0 0 0 0 0 0 0 0 0 0 0 0 127 0" result="hardAlpha"/>
<feOffset dx="5" dy="10"/>
<feGaussianBlur stdDeviation="2"/>
<feComposite in2="hardAlpha" operator="out"/>
<feColorMatrix type="matrix" values="0 0 0 0 0 0 0 0 0 0 0 0 0 0 0 0 0 0 0.5 0"/>
<feBlend mode="normal" in2="BackgroundImageFix" result="effect1_dropShadow_14_15"/>
<feBlend mode="normal" in="SourceGraphic" in2="effect1_dropShadow_14_15" result="shape"/>
</filter>
</defs>
</svg>
