<svg width="1608" height="1608" viewBox="0 0 1608 1608" fill="none" xmlns="http://www.w3.org/2000/svg">
<g filter="url(#filter0_d_4_13)">
<circle cx="804" cy="800" r="800" fill="#5EA872"/>
</g>
<defs>
<filter id="filter0_d_4_13" x="0" y="0" width="1608" height="1608" filterUnits="userSpaceOnUse" color-interpolation-filters="sRGB">
<feFlood flood-opacity="0" result="BackgroundImageFix"/>
<feColorMatrix in="SourceAlpha" type="matrix" values="0 0 0 0 0 0 0 0 0 0 0 0 0 0 0 0 0 0 127 0" result="hardAlpha"/>
<feOffset dy="4"/>
<feGaussianBlur stdDeviation="2"/>
<feComposite in2="hardAlpha" operator="out"/>
<feColorMatrix type="matrix" values="0 0 0 0 0 0 0 0 0 0 0 0 0 0 0 0 0 0 0.25 0"/>
<feBlend mode="normal" in2="BackgroundImageFix" result="effect1_dropShadow_4_13"/>
<feBlend mode="normal" in="SourceGraphic" in2="effect1_dropShadow_4_13" result="shape"/>
</filter>
</defs>
<g transform="translate(120, 200)">
<path d="M213.11 643.714C225.249 651.376 237.362 657.389 241.287 659.106C360.614 711.1 478.088 698.001 591.976 646.882C644.148 623.479 693.514 606.383 746.939 639.666C770.092 654.092 777.564 641.168 783.847 625.461C824.322 524.323 872.94 424.987 872.314 309.181C875.561 255.137 859.862 198.711 838.461 142.556C823.357 102.909 794.42 89.5845 749.317 87.1962C571.624 77.8012 464.422 164.874 387.563 291.91C365.715 328 339.437 358.991 307.464 385.25C275.766 411.284 241.172 428.713 227.544 435.477C155.703 471.064 132.519 460.856 119.051 482.611C92.8048 525.018 154.393 606.626 213.11 643.714ZM643.426 1051.01C647.485 1050.3 651.493 1049.51 655.469 1048.65C649.677 1019.15 650.905 985.548 659.969 948.533C673.942 891.44 697.803 836.227 716.999 780.117C722.969 762.597 738.937 746.365 714.346 727.778C689.864 709.276 669.787 711.185 642.64 723.036C619.468 733.17 596.15 742.187 572.672 749.95C545.442 812.548 521.714 876.133 512.107 943.688C500.652 1024.13 553.112 1066.56 643.426 1051.01ZM889.08 1095.99C951.934 1085.17 1004.38 1056.16 1048.91 1016.29C1093.34 976.531 1131.93 923.684 1160.97 873.807C1187.41 828.391 1206.63 779.468 1218.45 729.077C1268.42 516.216 1186.41 277.513 959.617 168.99C965.287 211.663 972.229 248.272 974.664 285.112C982.75 407.71 935.186 519.874 889.969 632.671C842.757 750.413 775.697 862.645 757.761 988.687C746.313 1069.12 798.766 1111.54 889.08 1095.99ZM0.100347 465.311C1.49382 419.392 19.3789 391.19 74.3573 384.759C180.856 372.298 253.15 322.625 306.313 237.793C424.069 49.9098 580.246 -20.3212 796.874 4.97306C957.853 23.7631 1106.67 136.198 1203.03 245.296C1250.92 299.527 1285.48 361.215 1307.49 426.444C1338.07 517.068 1344.43 614.53 1328.66 708.282C1302.71 862.532 1213.69 1012 1076.98 1111.82C1026.83 1148.44 969.825 1174.52 903.987 1181.54C812.746 1191.28 741.666 1171.66 698.57 1129.7C685.531 1132.76 672.126 1135.09 658.332 1136.56C477.679 1155.84 375.994 1060.06 414.301 903.551C424.823 860.579 440.944 818.691 456.438 776.673C387.531 785.261 317.065 780.478 244.611 757.352C96.7615 710.157 -3.62624 588.976 0.100347 465.311Z" fill="white"/>
</g>
<g transform="translate(620, 400)">
<path d="M51.9936 0C80.7139 0 104 25.0785 104 56C104 86.9328 80.7139 112 51.9936 112C23.2669 112 8.45641e-07 86.9328 8.45641e-07 56C8.45641e-07 25.0785 23.2669 0 51.9936 0Z" fill="white"/>
</g>
</svg>
